HIERARCHY
ROOT Torso
{
	OFFSET 0.000000 0.000000 0.000000
	CHANNELS 6 Xposition Yposition Zposition Zrotation Yrotation Xrotation 
	JOINT LHip
	{
		OFFSET 0.000000 0.000000 0.000000
		CHANNELS 3 Zrotation Yrotation Xrotation
		JOINT LThigh
		{
			OFFSET 0.055000 -0.055000 -0.010000
			CHANNELS 3 Zrotation Yrotation Xrotation
			JOINT LLeg
			{
				OFFSET 0.000000 -0.160000 0.015000
				CHANNELS 3 Zrotation Yrotation Xrotation
				JOINT LFoot
				{
					OFFSET 0.000000 -0.160000 -0.010000
					CHANNELS 3 Zrotation Yrotation Xrotation
					JOINT LToes
					{
						OFFSET 0.000000 0.000000 0.090000
						CHANNELS 3 Zrotation Yrotation Xrotation
						End Site
						{
							OFFSET 0.000000 0.000000 0.000000
						}
					}
				}
			}
		}
	}
	JOINT RHip
	{
		OFFSET 0.000000 0.000000 0.000000
		CHANNELS 3 Zrotation Yrotation Xrotation
		JOINT RThigh
		{
			OFFSET -0.055000 -0.055000 -0.010000
			CHANNELS 3 Zrotation Yrotation Xrotation
			JOINT RLeg
			{
				OFFSET 0.000000 -0.160000 0.015000
				CHANNELS 3 Zrotation Yrotation Xrotation
				JOINT RFoot
				{
					OFFSET 0.000000 -0.160000 -0.010000
					CHANNELS 3 Zrotation Yrotation Xrotation
					JOINT RToes
					{
						OFFSET 0.000000 0.000000 0.090000
						CHANNELS 3 Zrotation Yrotation Xrotation
						End Site
						{
							OFFSET 0.000000 0.000000 0.000000
						}
					}
				}
			}
		}
	}
	JOINT Neck
	{
		OFFSET 0.000000 0.135000 0.000000
		CHANNELS 3 Zrotation Yrotation Xrotation
		JOINT Head
		{
			OFFSET 0.000000 0.075000 0.000000
			CHANNELS 3 Zrotation Yrotation Xrotation
			End Site
			{
				OFFSET 0.000000 0.000000 0.000000
			}
		}
	}
	JOINT LUpperarm
	{
		OFFSET 0.098000 0.150000 0.000000
		CHANNELS 3 Zrotation Yrotation Xrotation
		JOINT LLowerarm
		{
			OFFSET 0.000000 0.009000 0.090000
			CHANNELS 3 Zrotation Yrotation Xrotation
			JOINT LHand
			{
				OFFSET 0.000000 0.000000 0.105000
				CHANNELS 3 Zrotation Yrotation Xrotation
				End Site
				{
					OFFSET 0.000000 0.000000 0.000000
				}
			}
		}
	}
	JOINT RUpperarm
	{
		OFFSET -0.098000 0.150000 0.000000
		CHANNELS 3 Zrotation Yrotation Xrotation
		JOINT RLowerarm
		{
			OFFSET 0.000000 0.009000 0.090000
			CHANNELS 3 Zrotation Yrotation Xrotation
			JOINT RHand
			{
				OFFSET 0.000000 0.000000 0.105000
				CHANNELS 3 Zrotation Yrotation Xrotation
				End Site
				{
					OFFSET 0.000000 0.000000 0.000000
				}
			}
		}
	}
}
MOTION
Frames: 18
Frame Time: 0.040000
-0.010979 0.415477 0.414397 179.621657 45.511325 -179.345298 1.469290 18.510836 8.147658 -9.707320 11.386281 -13.252427 6.116897 16.820823 20.567615 4.226585 -2.907226 12.338096 0.430400 -4.209998 -11.668294 6.611804 8.331683 -10.214008 9.396628 17.454062 4.276010 -21.340650 1.427636 24.981510 -1.034653 6.873132 7.820461 -0.305100 3.550998 -9.816795 -2.405223 -0.031510 -0.218469 -5.200797 4.570998 -5.325897 12.443957 37.327482 124.168640 14.355675 -6.305927 -7.378156 0.832846 3.065393 -19.557234 19.021427 -54.969695 80.100198 -27.612394 31.118548 -18.008882 -0.470509 -4.332619 -8.594046 
-0.011641 0.415420 0.414196 179.535464 45.166395 -179.419412 1.145557 18.347654 7.764057 -9.760453 11.448193 -12.461845 6.183795 16.375496 19.721147 4.215245 -2.679634 11.960552 0.463500 -4.366798 -12.111094 6.575085 8.385284 -10.054279 9.334810 17.565737 3.659460 -21.688084 1.247160 25.700141 -1.069649 6.880377 7.740131 -0.380600 3.962198 -10.970395 -2.369273 -0.128945 -0.098774 -5.273797 4.626898 -5.274897 12.246844 36.210765 122.985678 15.417218 -6.460141 -7.124561 0.800815 3.117353 -20.037121 18.696073 -55.041638 80.113188 -26.584009 30.911524 -17.684707 -0.464459 -4.322045 -8.637900 
-0.012320 0.415484 0.414047 179.471864 44.933502 -179.474208 0.871941 18.196251 7.431269 -9.805770 11.441460 -11.746553 6.230231 15.951278 18.930445 4.177995 -2.377358 11.845802 0.482200 -4.453098 -12.354894 6.571520 8.439850 -9.871849 9.279309 17.715036 2.964765 -22.080636 1.056672 26.489983 -1.088321 6.845076 7.717625 -0.486900 4.474298 -12.415094 -2.305259 -0.222016 -0.018247 -5.327197 4.676098 -5.231497 12.060801 35.043276 121.836362 16.581582 -6.663722 -6.851657 0.770715 3.176203 -20.478667 18.360266 -55.242516 80.238064 -25.531840 30.708667 -17.374064 -0.465361 -4.303503 -8.622005 
-0.013014 0.415642 0.413922 179.423024 44.692626 -179.532468 0.656153 18.034114 7.128889 -9.860594 11.380324 -11.059308 6.274648 15.537452 18.204072 4.140961 -2.089783 11.894476 0.484800 -4.464798 -12.388194 6.580510 8.506288 -9.673595 9.220226 17.897417 2.209343 -22.486132 0.850328 27.378814 -1.081797 6.751004 7.813366 -0.587000 4.905398 -13.638893 -2.287805 -0.306824 0.095537 -5.372697 4.709798 -5.173797 11.944731 33.823761 120.695398 17.917751 -6.948571 -6.565235 0.725475 3.236131 -20.951267 18.069318 -55.360861 80.305425 -24.425132 30.453860 -17.029720 -0.479573 -4.286118 -8.571420 
-0.013699 0.415902 0.413853 179.402315 44.525378 -179.586694 0.482896 17.883491 6.851354 -9.896102 11.239493 -10.382603 6.320619 15.137541 17.499627 4.096636 -1.774619 12.055169 0.457600 -4.339598 -12.033994 6.631561 8.569424 -9.454506 9.176996 18.100081 1.361284 -22.907165 0.631808 28.327705 -1.025634 6.532845 8.150139 -0.696200 5.333797 -14.863193 -2.281009 -0.389538 0.192426 -5.382897 4.738198 -5.116697 11.881607 32.601212 119.581808 19.338255 -7.255183 -6.255001 0.681855 3.291988 -21.401570 17.776935 -55.548276 80.444373 -23.315004 30.196451 -16.691316 -0.503962 -4.267749 -8.519624 
-0.014396 0.416268 0.413828 179.401978 44.461945 -179.631533 0.325462 17.761290 6.601983 -9.921061 11.100642 -9.732069 6.372573 14.759830 16.800576 4.058125 -1.470021 12.252342 0.436500 -4.239798 -11.752194 6.728083 8.626281 -9.216445 9.138613 18.295063 0.398245 -23.342177 0.401008 29.321914 -0.904055 6.132273 8.813566 -0.807300 5.733997 -16.014492 -2.290363 -0.465840 0.267507 -5.376997 4.758698 -5.077497 11.864123 31.466496 118.528280 20.843865 -7.585425 -5.924287 0.641755 3.344791 -21.628775 17.502674 -55.938729 80.705575 -22.118063 29.939720 -16.332115 -0.553143 -4.241017 -8.266086 
-0.015084 0.416706 0.413858 179.431854 44.460907 -179.676675 0.191878 17.653409 6.382179 -9.923451 10.934405 -9.113498 6.426547 14.406038 16.131352 4.018454 -1.159024 12.490987 0.392500 -4.022698 -11.140594 6.850417 8.685897 -8.961857 9.128235 18.547679 -0.622181 -23.786728 0.167257 30.379123 -0.747217 5.611072 9.704444 -0.864000 5.926997 -16.572692 -2.312409 -0.534465 0.335545 -5.371997 4.769298 -5.040297 11.889882 30.341791 117.527537 22.443320 -7.964439 -5.575162 0.592375 3.397502 -21.864132 17.209385 -56.654507 81.165110 -20.816886 29.706293 -15.938337 -0.637907 -4.197850 -7.639104 
-0.015774 0.417211 0.413942 179.477019 44.498418 -179.722496 0.111153 17.551416 6.194142 -9.926293 10.726252 -8.583178 6.480720 14.081887 15.519931 3.978123 -0.850090 12.779604 0.350700 -3.804998 -10.528595 7.009453 8.732015 -8.678521 9.103275 18.778002 -1.735588 -24.262398 -0.080039 31.484951 -0.565617 4.967008 10.838454 -0.885000 5.996697 -16.774892 -2.380354 -0.600267 0.381074 -5.332297 4.785898 -5.000598 11.933482 29.208890 116.523051 24.084734 -8.360381 -5.203704 0.541479 3.443452 -22.113779 16.887957 -57.602837 81.748185 -19.450912 29.516126 -15.546659 -0.745562 -4.143540 -6.798821 
-0.016445 0.417677 0.414091 179.536790 44.647277 -179.757219 0.046108 17.478144 6.061303 -9.925047 10.565476 -8.161937 6.541393 13.808659 14.965544 3.968671 -0.628064 13.072312 0.317500 -3.621898 -10.015395 7.209162 8.768245 -8.374463 9.063935 19.067100 -2.930970 -24.782549 -0.327245 32.634573 -0.387347 4.247398 12.094089 -0.800200 5.709497 -15.943892 -2.433423 -0.652736 0.424899 -5.269697 4.787998 -4.973398 11.897288 28.031175 115.511903 25.775640 -8.747265 -4.755469 0.494768 3.486278 -22.327493 16.607603 -58.569728 82.332791 -18.058273 29.311415 -15.160304 -0.853702 -4.076836 -5.979626 
-0.017101 0.418054 0.414298 179.588735 44.782322 -179.793347 -0.006516 17.405192 5.966754 -9.933818 10.527544 -7.857911 6.594303 13.575395 14.488688 4.008637 -0.561727 13.389251 0.292900 -3.480198 -9.618695 7.404764 8.795988 -8.073178 9.022448 19.359403 -4.199060 -25.360332 -0.575169 33.856613 -0.238499 3.505938 13.422940 -0.657500 5.186297 -14.440693 -2.555243 -0.704986 0.438421 -5.222897 4.785098 -4.943298 11.949735 26.966500 114.539707 27.498715 -9.166174 -4.329056 0.448181 3.515417 -22.530708 16.285805 -59.567761 82.928515 -16.695871 29.172610 -14.831666 -0.948085 -4.017334 -5.252727 
-0.017736 0.418397 0.414529 179.643330 44.941000 -179.820087 -0.060013 17.330935 5.884005 -9.933223 10.507220 -7.594325 6.638589 13.367517 14.062724 4.046235 -0.499722 13.698729 0.270300 -3.344298 -9.238695 7.604950 8.848673 -7.764172 8.970712 19.667464 -5.557805 -25.977412 -0.805719 35.176252 -0.118287 2.724105 14.734811 -0.487000 4.474798 -12.416294 -2.645929 -0.745820 0.446174 -5.121497 4.776398 -4.909798 12.009993 25.931835 113.579384 29.291831 -9.638316 -3.887527 0.402183 3.544067 -22.804922 15.958940 -60.536232 83.506430 -15.335843 29.033356 -14.510809 -1.041941 -3.951858 -4.587889 
-0.018341 0.418758 0.414801 179.699339 45.177974 -179.845784 -0.126144 17.271443 5.802519 -9.909132 10.419130 -7.344189 6.683455 13.175688 13.655130 4.059095 -0.359944 14.001081 0.258300 -3.269998 -9.031396 7.821223 8.917877 -7.439160 8.911989 20.064674 -6.974020 -26.626951 -1.011680 36.580483 -0.011674 1.845664 15.993219 -0.318900 3.629798 -10.037395 -2.733129 -0.785144 0.463734 -5.008997 4.776498 -4.851098 12.063147 25.012203 112.640807 31.153742 -10.101908 -3.389649 0.364260 3.566748 -22.970644 15.672907 -61.492487 84.058137 -13.948212 28.886107 -14.186162 -1.141667 -3.875447 -3.916960 
-0.018931 0.419212 0.415077 179.769514 45.433508 -179.876078 -0.176669 17.223371 5.712695 -9.889158 10.284321 -7.035113 6.735151 12.975071 13.227359 4.049807 -0.147205 14.306904 0.251300 -3.225798 -8.907896 8.081608 9.014360 -7.098300 8.841251 20.527293 -8.456699 -27.289046 -1.191455 38.083863 0.087534 0.838651 17.222128 -0.207900 2.935999 -8.100496 -2.840826 -0.826453 0.494289 -4.909598 4.770498 -4.807198 12.162580 24.236996 111.770616 33.092895 -10.606450 -2.890575 0.337841 3.582608 -23.012087 15.330092 -62.700006 84.742016 -12.531961 28.794745 -13.838227 -1.260094 -3.778773 -3.027324 
-0.019488 0.419728 0.415326 179.858301 45.671806 -179.921591 -0.223598 17.167078 5.617900 -9.842351 10.109075 -6.667904 6.787977 12.763049 12.792242 4.014402 0.145603 14.622733 0.242100 -3.166298 -8.741996 8.352463 9.193666 -6.759981 8.768499 21.082653 -9.952789 -27.947789 -1.301879 39.730782 0.111676 0.041657 18.159234 -0.175300 2.697099 -7.436596 -2.965475 -0.859934 0.561888 -4.845298 4.766898 -4.760198 12.300046 23.516351 110.940566 35.103503 -11.152824 -2.385341 0.317985 3.591811 -23.062690 14.881793 -64.287711 85.646367 -11.029219 28.757174 -13.424210 -1.408973 -3.652170 -1.832353 
-0.020004 0.420190 0.415617 179.951850 45.923386 -179.968392 -0.288652 17.096833 5.546395 -9.786086 9.996040 -6.316331 6.855153 12.531931 12.320230 3.998975 0.410026 14.999481 0.237100 -3.133998 -8.651996 8.611812 9.442165 -6.438153 8.672529 21.800037 -11.413423 -28.574912 -1.342785 41.512271 0.090932 -0.551091 18.713097 -0.161500 2.589599 -7.138096 -3.050844 -0.897623 0.631734 -4.763798 4.772498 -4.724198 12.434627 22.828012 110.108872 37.148104 -11.715144 -1.848590 0.302926 3.600552 -23.145609 14.390483 -65.929241 86.577936 -9.515992 28.719680 -12.986268 -1.566460 -3.503645 -0.556927 
-0.020486 0.420674 0.415868 -179.948687 46.195542 179.970842 -0.341502 17.043172 5.477732 -9.726193 9.860840 -5.926589 6.928730 12.304398 11.844904 3.974883 0.704514 15.365051 0.235200 -3.121198 -8.616396 8.865248 9.737629 -6.135796 8.563859 22.576481 -12.793143 -29.206769 -1.312457 43.367729 0.009431 -0.826936 18.896759 -0.190700 2.812499 -7.757196 -3.135534 -0.931550 0.719707 -4.701398 4.765598 -4.683298 12.534664 22.156896 109.314866 39.205496 -12.292603 -1.287497 0.296735 3.607161 -23.192579 13.734335 -68.032428 87.798107 -7.958405 28.746378 -12.482818 -1.749436 -3.317309 0.984980 
-0.020913 0.421243 0.416108 -179.838481 46.462338 179.906526 -0.384353 16.991916 5.435818 -9.667311 9.745028 -5.557704 7.009896 12.083436 11.384074 3.951550 0.998847 15.726753 0.237400 -3.135998 -8.657496 9.128747 10.073851 -5.834456 8.411036 23.383837 -14.173476 -29.803670 -1.230722 45.301365 -0.098819 -0.927441 18.898564 -0.230500 3.090198 -8.529896 -3.223609 -0.963118 0.778969 -4.616298 4.764098 -4.649098 12.638480 21.514403 108.564105 41.208194 -12.878961 -0.748526 0.301103 3.609245 -23.212440 12.862440 -70.596076 89.322228 -6.366966 28.837686 -11.909712 -1.943749 -3.097941 2.715210 
-0.021306 0.421889 0.416295 -179.729716 46.771389 179.834030 -0.442276 16.961157 5.400123 -9.592782 9.623453 -5.182706 7.097504 11.879130 10.936402 3.931335 1.287798 16.059873 0.247900 -3.204098 -8.847396 9.379783 10.429902 -5.546271 8.261129 24.199513 -15.513822 -30.397923 -1.097922 47.264605 -0.238397 -0.852942 18.795434 -0.251000 3.223798 -8.902296 -3.291633 -0.990736 0.831651 -4.537898 4.749498 -4.626398 12.697385 20.901299 107.885310 43.192402 -13.481073 -0.196586 0.308576 3.611527 -23.173057 11.608375 -73.989307 91.411390 -4.717072 28.973296 -11.188153 -2.155032 -2.821445 4.962743 
